<svg viewBox="0 0 512 512" xmlns="http://www.w3.org/2000/svg"><path d="m497 211h-75v-114.273438l68.289062-34.144531 13.421876 26.835938-51.710938 25.855469v65.726562h45zm0 0" fill="#292929"/><path d="m362 0v211l-28.5 30h-239.5l-33-30v-211zm0 0" fill="#ff7816"/><path d="m333.5 241h-122.5v-241h151v211zm0 0" fill="#ff4b00"/><path d="m61 211v240h301v-240zm0 0" fill="#5a5a5a"/><path d="m121 60v121h181v-121zm0 0" fill="#ececf1"/><path d="m467 421c-24.8125 0-45-20.1875-45-45v-60c0-8.277344-6.722656-15-15-15h-60v-30h60c24.8125 0 45 20.1875 45 45v60c0 8.277344 6.722656 15 15 15s15-6.722656 15-15v-293.789062l-55.605469-55.605469 21.210938-21.210938 64.394531 64.394531v306.210938c0 24.8125-20.1875 45-45 45zm0 0" fill="#5a5a5a"/><path d="m211 60h91v121h-91zm0 0" fill="#e2e2e7"/><path d="m211 211h151v240h-151zm0 0" fill="#444"/><path d="m386.300781 421h-349.601562l-36.699219 91h424.300781zm0 0" fill="#ff9f00"/><path d="m424.300781 512h-213.300781v-91h175.300781zm0 0" fill="#ff7816"/><path d="m250 323.5-39-67.5-39 67.5c-3.898438 6.898438-6 14.699219-6 22.5 0 24.902344 20.097656 45 45 45s45-20.097656 45-45c0-7.800781-2.101562-15.601562-6-22.5zm0 0" fill="#ffcd00"/><path d="m211 391v-135l39 67.5c3.898438 6.898438 6 14.699219 6 22.5 0 24.902344-20.097656 45-45 45zm0 0" fill="#eebf00"/></svg>