<svg height="512pt" viewBox="0 -4 512 512" width="512pt" xmlns="http://www.w3.org/2000/svg"><path d="m401.066406 34.234375h68.265625c18.851563 0 34.132813 15.28125 34.132813 34.132813v307.199218c0 18.851563-15.28125 34.132813-34.132813 34.132813h-426.664062c-18.851563 0-34.132813-15.28125-34.132813-34.132813v-307.199218c0-18.851563 15.28125-34.132813 34.132813-34.132813zm0 0" fill="#35495e"/><path d="m179.199219 409.699219h153.601562v51.203125h-153.601562zm0 0" fill="#7f8c8d"/><path d="m145.066406 460.902344h221.867188c9.425781 0 17.066406 7.640625 17.066406 17.066406v17.066406h-256v-17.066406c0-9.425781 7.640625-17.066406 17.066406-17.066406zm0 0" fill="#95a5a5"/><path d="m503.464844 503.566406h-494.929688c-4.714844 0-8.535156-3.820312-8.535156-8.53125 0-4.714844 3.820312-8.535156 8.535156-8.535156h494.929688c4.714844 0 8.535156 3.820312 8.535156 8.535156 0 4.710938-3.820312 8.53125-8.535156 8.53125zm0 0" fill="#2c3e50"/><path d="m324.265625 70.375c1.179687-36.84375-27.132813-67.953125-63.921875-70.242188-36.792969-2.285156-68.738281 25.078126-72.132812 61.785157-2.304688 19.1875 3.265624 38.492187 15.445312 53.503906 11.523438 13.6875 17.957031 30.9375 18.210938 48.828125v6.519531h68.265624v-5.625c-.285156-17.582031 5.726563-34.683593 16.949219-48.222656 11.136719-12.945313 17.238281-29.46875 17.183594-46.546875zm0 0" fill="#f0c419"/><path d="m324.265625 70.414062c.054687 17.058594-6.035156 33.566407-17.152344 46.507813-11.253906 13.515625-17.28125 30.628906-16.980469 48.214844v5.632812h-34.132812v-170.667969c38.253906.597657 68.796875 32.058594 68.265625 70.3125zm0 0" fill="#f3d55b"/><path d="m221.867188 170.769531h68.265624v17.066407c0 14.136718-11.460937 25.597656-25.597656 25.597656h-17.070312c-14.136719 0-25.597656-11.460938-25.597656-25.597656zm0 0" fill="#ecf0f1"/><g fill="#f3d55b"><path d="m153.601562 85.433594h-34.136718c-4.710938 0-8.53125-3.820313-8.53125-8.53125 0-4.714844 3.820312-8.535156 8.53125-8.535156h34.136718c4.710938 0 8.53125 3.820312 8.53125 8.535156 0 4.710937-3.820312 8.53125-8.53125 8.53125zm0 0"/><path d="m136.535156 153.699219c-3.453125 0-6.5625-2.078125-7.882812-5.265625-1.320313-3.1875-.59375-6.859375 1.847656-9.300782l25.601562-25.597656c3.347657-3.234375 8.667969-3.1875 11.960938.101563 3.292969 3.292969 3.335938 8.617187.105469 11.964843l-25.601563 25.597657c-1.601562 1.601562-3.769531 2.5-6.03125 2.5zm0 0"/><path d="m392.535156 85.433594h-34.136718c-4.710938 0-8.53125-3.820313-8.53125-8.53125 0-4.714844 3.820312-8.535156 8.53125-8.535156h34.136718c4.710938 0 8.53125 3.820312 8.53125 8.535156 0 4.710937-3.820312 8.53125-8.53125 8.53125zm0 0"/><path d="m375.464844 153.699219c-2.261719 0-4.429688-.898438-6.03125-2.5l-25.601563-25.597657c-3.230469-3.347656-3.1875-8.671874.105469-11.964843 3.292969-3.289063 8.613281-3.335938 11.960938-.101563l25.601562 25.597656c2.441406 2.441407 3.167969 6.113282 1.847656 9.300782-1.320312 3.1875-4.429687 5.265625-7.882812 5.265625zm0 0"/><path d="m162.132812 42.769531c-2.261718-.003906-4.433593-.902343-6.03125-2.503906l-25.601562-25.597656c-3.234375-3.347657-3.1875-8.671875.105469-11.960938 3.289062-3.292969 8.613281-3.339843 11.960937-.105469l25.601563 25.601563c2.4375 2.4375 3.167969 6.109375 1.847656 9.296875s-4.429687 5.265625-7.882813 5.269531zm0 0"/><path d="m349.867188 42.769531c-3.453126-.003906-6.5625-2.082031-7.882813-5.269531s-.589844-6.859375 1.847656-9.296875l25.601563-25.601563c3.347656-3.234374 8.671875-3.1875 11.960937.105469 3.292969 3.289063 3.339844 8.613281.105469 11.960938l-25.601562 25.597656c-1.597657 1.601563-3.769532 2.5-6.03125 2.503906zm0 0"/></g><path d="m93.867188 307.300781h-17.066407c-9.425781 0-17.066406-7.640625-17.066406-17.066406v-17.066406c0-9.425781 7.640625-17.066407 17.066406-17.066407h17.066407c9.425781 0 17.066406 7.640626 17.066406 17.066407v17.066406c0 9.425781-7.640625 17.066406-17.066406 17.066406zm-17.066407-34.132812v17.066406h17.066407v-17.066406zm0 0" fill="#bdc3c7"/><path d="m443.734375 273.167969v17.066406c0 4.710937-3.820313 8.535156-8.535156 8.535156h-153.597657v-34.136719h153.597657c4.714843 0 8.535156 3.820313 8.535156 8.535157zm0 0" fill="#ff5364"/><path d="m281.601562 264.632812v34.136719h-136.535156c-4.710937 0-8.53125-3.824219-8.53125-8.535156v-17.066406c0-4.714844 3.820313-8.535157 8.53125-8.535157zm0 0" fill="#fb7b76"/><path d="m503.464844 349.96875v25.597656c0 18.851563-15.28125 34.132813-34.132813 34.132813h-426.664062c-18.851563 0-34.132813-15.28125-34.132813-34.132813v-25.597656zm0 0" fill="#95a5a5"/></svg>