<svg height="512pt" viewBox="0 0 512 512.02882" width="512pt" xmlns="http://www.w3.org/2000/svg"><path d="m501.6875 10.355469c-10.101562-10.109375-25.296875-13.136719-38.5-7.664063-13.203125 5.46875-21.804688 18.359375-21.792969 32.648438v397.242187l27.277344 74.238281c1.433594 3.148438 4.574219 5.167969 8.03125 5.167969 3.460937 0 6.601563-2.019531 8.035156-5.167969l27.277344-74.238281v-397.242187c-.019531-9.363282-3.730469-18.339844-10.328125-24.984375zm0 0" fill="#cc4b4c"/><path d="m512.015625 35.339844v132.414062h-70.621094v-132.414062c0-19.503906 15.808594-35.3125002 35.308594-35.3125002 19.503906 0 35.3125 15.8085942 35.3125 35.3125002zm0 0" fill="#35495e"/><path d="m441.394531 167.753906h70.621094v264.828125h-70.621094zm0 0" fill="#cc4b4c"/><path d="m512.015625 432.582031-27.277344 74.238281c-1.433593 3.148438-4.574219 5.167969-8.035156 5.167969-3.457031 0-6.597656-2.019531-8.03125-5.167969l-27.277344-74.238281zm0 0" fill="#2c3e50"/><path d="m476.703125 229.546875c-4.875 0-8.828125-3.953125-8.828125-8.828125v-158.898438c0-4.875 3.953125-8.824218 8.828125-8.824218s8.828125 3.949218 8.828125 8.824218v158.898438c0 4.875-3.953125 8.828125-8.828125 8.828125zm0 0" fill="#2c3e50"/><path d="m35.324219 406.097656v-379.585937c0-14.625 11.855469-26.4843752 26.484375-26.4843752h308.964844c14.625 0 26.480468 11.8593752 26.480468 26.4843752v459.035156c0 14.625-11.855468 26.480469-26.480468 26.480469h-308.964844c-14.628906 0-26.484375-11.855469-26.484375-26.480469zm0 0" fill="#f3d55b"/><path d="m17.667969 70.648438h79.449219c9.75 0 17.65625 7.90625 17.65625 17.65625s-7.90625 17.65625-17.65625 17.65625h-79.449219c-9.75 0-17.652344-7.90625-17.652344-17.65625s7.902344-17.65625 17.652344-17.65625zm0 0" fill="#bdc3c7"/><path d="m17.667969 238.375h79.449219c9.75 0 17.65625 7.902344 17.65625 17.652344 0 9.753906-7.90625 17.65625-17.65625 17.65625h-79.449219c-9.75 0-17.652344-7.902344-17.652344-17.65625 0-9.75 7.902344-17.652344 17.652344-17.652344zm0 0" fill="#bdc3c7"/><path d="m17.667969 406.097656h79.449219c9.75 0 17.65625 7.90625 17.65625 17.65625s-7.90625 17.652344-17.65625 17.652344h-79.449219c-9.75 0-17.652344-7.902344-17.652344-17.652344s7.902344-17.65625 17.652344-17.65625zm0 0" fill="#bdc3c7"/><g fill="#f29c1f"><path d="m238.359375 317.820312c-24.71875 0-44.136719-27.144531-44.136719-61.792968 0-34.648438 19.417969-61.792969 44.136719-61.792969 18.539063 0 34.699219 15.484375 41.179687 39.453125.917969 3.074219.09375 6.402344-2.148437 8.695312-2.246094 2.292969-5.554687 3.1875-8.648437 2.335938-3.09375-.847656-5.480469-3.308594-6.238282-6.425781-4.273437-15.808594-13.984375-26.402344-24.144531-26.402344-14.355469 0-26.484375 20.214844-26.484375 44.136719 0 23.925781 12.128906 44.140625 26.484375 44.140625 8.253906-.898438 15.421875-6.078125 18.863281-13.632813 1.59375-2.722656 4.515625-4.390625 7.667969-4.371094 3.15625.015626 6.0625 1.710938 7.625 4.453126 1.5625 2.738281 1.542969 6.101562-.046875 8.828124-6.5 13.066407-19.535156 21.617188-34.109375 22.375zm0 0"/><path d="m238.359375 353.132812c-44.003906-.007812-82.503906-29.601562-93.824219-72.125-11.320312-42.523437 7.371094-87.339843 45.546875-109.222656 38.175781-21.882812 86.296875-15.359375 117.269531 15.898438 30.96875 31.257812 37.050782 79.4375 14.816407 117.410156-4.613281 8.078125-11.679688 14.472656-20.179688 18.253906-8.214843 4.011719-17.832031 3.957032-25.996093-.148437-10.371094-6.96875-17.507813-17.8125-19.800782-30.09375-.179687-.890625-.222656-1.800781-.125-2.703125l8.828125-79.445313c.585938-4.804687 4.894531-8.261719 9.710938-7.796875 4.832031.535156 8.320312 4.878906 7.804687 9.710938l-8.660156 77.9375c1.402344 6.65625 5.117188 12.597656 10.484375 16.773437 3.472656 1.628907 7.519531 1.4375 10.824219-.503906 5.011718-2.296875 9.167968-6.125 11.863281-10.9375 8.414063-14.367187 12.089844-31.015625 10.515625-47.589844-3.828125-37.238281-32.871094-66.894531-70.019531-71.503906-29.1875-3.175781-57.746094 10-74.269531 34.265625-16.523438 24.265625-18.316407 55.667969-4.667969 81.660156 13.652343 25.988282 40.523437 42.335938 69.878906 42.503906 4.875 0 8.828125 3.953126 8.828125 8.828126s-3.953125 8.828124-8.828125 8.828124zm0 0"/><path d="m79.460938 44.167969h-8.824219c-4.878907 0-8.828125-3.953125-8.828125-8.828125s3.949218-8.828125 8.828125-8.828125h8.824219c4.878906 0 8.828124 3.953125 8.828124 8.828125s-3.949218 8.828125-8.828124 8.828125zm0 0"/><path d="m247.1875 44.167969h-132.414062c-4.875 0-8.828126-3.953125-8.828126-8.828125s3.953126-8.828125 8.828126-8.828125h132.414062c4.875 0 8.828125 3.953125 8.828125 8.828125s-3.953125 8.828125-8.828125 8.828125zm0 0"/><path d="m361.945312 485.546875h-8.828124c-4.875 0-8.828126-3.953125-8.828126-8.828125s3.953126-8.828125 8.828126-8.828125h8.828124c4.875 0 8.828126 3.953125 8.828126 8.828125s-3.953126 8.828125-8.828126 8.828125zm0 0"/><path d="m317.808594 485.546875h-132.414063c-4.875 0-8.828125-3.953125-8.828125-8.828125s3.953125-8.828125 8.828125-8.828125h132.414063c4.875 0 8.828125 3.953125 8.828125 8.828125s-3.953125 8.828125-8.828125 8.828125zm0 0"/></g></svg>