<svg viewBox="-30 0 511 512" xmlns="http://www.w3.org/2000/svg"><path d="m84.265625 44.335938h283.546875v421.933593h-283.546875zm0 0" fill="#d1ede7"/><path d="m345.195312 44.335938h22.617188v421.933593h-22.617188zm0 0" fill="#abddd4"/><path d="m84.265625 44.335938h283.546875v22.957031h-283.546875zm0 0" fill="#abddd4"/><path d="m84.265625 444.699219h283.546875v21.570312h-283.546875zm0 0" fill="#abddd4"/><path d="m383.359375 55.058594h-314.640625c-5.632812 0-10.199219-4.566406-10.199219-10.199219v-34.660156c0-5.632813 4.566407-10.199219 10.199219-10.199219h314.640625c5.632813 0 10.199219 4.566406 10.199219 10.199219v34.660156c0 5.632813-4.566406 10.199219-10.199219 10.199219zm0 0" fill="#ff5656"/><path d="m383.359375 512h-314.640625c-5.632812 0-10.199219-4.566406-10.199219-10.199219v-34.660156c0-5.632813 4.566407-10.199219 10.199219-10.199219h314.640625c5.632813 0 10.199219 4.566406 10.199219 10.199219v34.660156c0 5.632813-4.566406 10.199219-10.199219 10.199219zm0 0" fill="#ff5656"/><path d="m315.792969 108.53125v48.855469c0 5.632812-4.566407 10.199219-10.199219 10.199219h-159.113281c-5.632813 0-10.199219-4.566407-10.199219-10.199219v-48.957031c0-5.632813 4.566406-10.199219 10.199219-10.199219h159.011719c5.691406 0 10.300781 4.613281 10.300781 10.300781zm0 0" fill="#39aaff"/><path d="m257.839844 98.230469-69.355469 69.355469h-36.066406l69.355469-69.355469zm0 0" fill="#61daff"/><path d="m296.753906 98.230469-69.347656 69.355469h-21.929688l69.347657-69.355469zm0 0" fill="#61daff"/><path d="m318.21875 329.761719h-28.050781c-5.632813 0-10.199219-4.566407-10.199219-10.203125v-89.5c0-13.378906 10.84375-24.222656 24.222656-24.222656s24.222656 10.84375 24.222656 24.222656v89.5c0 5.632812-4.5625 10.203125-10.195312 10.203125zm0 0" fill="#ff5656"/><path d="m435.328125 224.15625v108.109375c0 38.289063-31.140625 69.433594-69.433594 69.433594-31.5 0-58.171875-21.089844-66.628906-49.894531-1.824219-6.199219-2.804687-12.753907-2.804687-19.542969v-38.238281c0-4.277344 3.460937-7.726563 7.726562-7.726563 4.277344 0 7.726562 3.449219 7.726562 7.726563v38.238281c0 6.894531 1.296876 13.476562 3.65625 19.542969 7.851563 20.140624 27.445313 34.441406 50.324219 34.441406 29.773438 0 53.980469-24.210938 53.980469-53.980469v-108.109375c0-4.273438 3.460938-7.726562 7.726562-7.726562 4.277344 0 7.726563 3.453124 7.726563 7.726562zm0 0" fill="#83b2a9"/><path d="m427.605469 228.273438c-5.492188 0-9.945313-4.453126-9.945313-9.945313v-22.675781h19.890625v22.675781c0 5.492187-4.453125 9.945313-9.945312 9.945313zm0 0" fill="#d1ede7"/><path d="m441.378906 208.390625h-27.539062c-5.636719 0-10.203125-4.566406-10.203125-10.199219v-47.441406c0-5.632812 4.566406-10.199219 10.203125-10.199219 20.839844 0 37.734375 16.894531 37.734375 37.738281v19.902344c0 5.632813-4.5625 10.199219-10.195313 10.199219zm0 0" fill="#ff5656"/><path d="m413.839844 152.398438c-4.269532 0-7.726563-3.460938-7.726563-7.726563v-10.449219c0-8.113281-6.601562-14.710937-14.714843-14.710937-4.265626 0-7.726563-3.460938-7.726563-7.726563s3.460937-7.726562 7.726563-7.726562c16.632812 0 30.164062 13.53125 30.164062 30.164062v10.449219c0 4.265625-3.457031 7.726563-7.722656 7.726563zm0 0" fill="#abddd4"/><path d="m133.859375 329.761719h28.046875c5.632812 0 10.203125-4.566407 10.203125-10.203125v-89.5c0-13.378906-10.847656-24.222656-24.226563-24.222656-13.378906 0-24.222656 10.84375-24.222656 24.222656v89.5c0 5.632812 4.566406 10.203125 10.199219 10.203125zm0 0" fill="#39aaff"/><path d="m155.613281 294.023438v38.242187c0 6.789063-.976562 13.339844-2.800781 19.542969-8.457031 28.800781-35.128906 49.890625-66.632812 49.890625-38.289063 0-69.433594-31.140625-69.433594-69.433594v-108.109375c0-4.273438 3.453125-7.726562 7.726562-7.726562 4.265625 0 7.726563 3.453124 7.726563 7.726562v108.109375c0 29.769531 24.207031 53.980469 53.980469 53.980469 22.878906 0 42.472656-14.300782 50.324218-34.441406 2.359375-6.066407 3.65625-12.648438 3.65625-19.542969v-38.238281c0-4.277344 3.453125-7.726563 7.726563-7.726563 4.265625 0 7.726562 3.453125 7.726562 7.726563zm0 0" fill="#83b2a9"/><path d="m24.46875 228.273438c5.492188 0 9.945312-4.453126 9.945312-9.945313v-22.675781h-19.890624v22.675781c0 5.492187 4.453124 9.945313 9.945312 9.945313zm0 0" fill="#d1ede7"/><path d="m10.699219 208.390625h27.539062c5.632813 0 10.199219-4.566406 10.199219-10.199219v-47.441406c0-5.632812-4.566406-10.199219-10.199219-10.199219-20.84375 0-37.738281 16.894531-37.738281 37.738281v19.902344c0 5.632813 4.566406 10.199219 10.199219 10.199219zm0 0" fill="#39aaff"/><path d="m38.238281 152.398438c-4.265625 0-7.726562-3.460938-7.726562-7.726563v-10.449219c0-16.632812 13.53125-30.164062 30.164062-30.164062 4.269531 0 7.726563 3.460937 7.726563 7.726562s-3.457032 7.726563-7.726563 7.726563c-8.113281 0-14.710937 6.597656-14.710937 14.710937v10.449219c0 4.265625-3.460938 7.726563-7.726563 7.726563zm0 0" fill="#abddd4"/><g fill="#1a94af"><path d="m239.128906 243.480469h-25.839844c-4.265624 0-7.726562-3.460938-7.726562-7.726563s3.460938-7.726562 7.726562-7.726562h25.839844c4.265625 0 7.726563 3.460937 7.726563 7.726562s-3.460938 7.726563-7.726563 7.726563zm0 0"/><path d="m239.128906 264.84375h-25.839844c-4.265624 0-7.726562-3.460938-7.726562-7.726562 0-4.265626 3.460938-7.726563 7.726562-7.726563h25.839844c4.265625 0 7.726563 3.460937 7.726563 7.726563 0 4.265624-3.460938 7.726562-7.726563 7.726562zm0 0"/><path d="m239.128906 286.203125h-25.839844c-4.265624 0-7.726562-3.457031-7.726562-7.722656 0-4.269531 3.460938-7.726563 7.726562-7.726563h25.839844c4.265625 0 7.726563 3.457032 7.726563 7.726563 0 4.265625-3.460938 7.722656-7.726563 7.722656zm0 0"/><path d="m239.128906 307.566406h-25.839844c-4.265624 0-7.726562-3.457031-7.726562-7.726562 0-4.265625 3.460938-7.726563 7.726562-7.726563h25.839844c4.265625 0 7.726563 3.460938 7.726563 7.726563 0 4.269531-3.460938 7.726562-7.726563 7.726562zm0 0"/></g><path d="m155.613281 294.023438v38.242187c0 6.789063-.976562 13.339844-2.800781 19.542969h-16.308594c2.359375-6.070313 3.65625-12.652344 3.65625-19.542969v-38.242187c0-4.273438 3.453125-7.726563 7.726563-7.726563 4.265625 0 7.726562 3.453125 7.726562 7.726563zm0 0" fill="#2584f6"/><path d="m315.570312 351.808594h-16.308593c-1.820313-6.203125-2.800781-12.753906-2.800781-19.542969v-38.242187c0-4.273438 3.460937-7.726563 7.726562-7.726563 4.273438 0 7.726562 3.453125 7.726562 7.726563v38.242187c0 6.890625 1.296876 13.472656 3.65625 19.542969zm0 0" fill="#f72d2d"/></svg>