<svg height="512pt" viewBox="-4 0 512 512" width="512pt" xmlns="http://www.w3.org/2000/svg"><path d="m388.414062 61.792969h105.929688c4.875 0 8.828125 3.953125 8.828125 8.828125v17.65625c0 4.875-3.953125 8.824218-8.828125 8.824218h-105.929688zm0 0" fill="#ff5364"/><path d="m388.414062 141.242188h105.929688c4.875 0 8.828125 3.953124 8.828125 8.828124v17.652344c0 4.875-3.953125 8.828125-8.828125 8.828125h-105.929688zm0 0" fill="#ff5364"/><path d="m388.414062 220.691406h105.929688c4.875 0 8.828125 3.949219 8.828125 8.824219v17.65625c0 4.875-3.953125 8.828125-8.828125 8.828125h-105.929688zm0 0" fill="#ff5364"/><path d="m35.308594 406.070312v-379.585937c0-14.628906 11.859375-26.484375 26.484375-26.484375h308.964843c14.625 0 26.484376 11.855469 26.484376 26.484375v459.03125c0 14.628906-11.859376 26.484375-26.484376 26.484375h-308.964843c-14.625 0-26.484375-11.855469-26.484375-26.484375zm0 0" fill="#2c3e50"/><path d="m17.65625 70.621094h79.445312c9.753907 0 17.65625 7.902344 17.65625 17.65625 0 9.75-7.902343 17.652344-17.65625 17.652344h-79.445312c-9.75 0-17.65625-7.902344-17.65625-17.652344 0-9.753906 7.90625-17.65625 17.65625-17.65625zm0 0" fill="#bdc3c7"/><path d="m17.65625 238.34375h79.445312c9.753907 0 17.65625 7.90625 17.65625 17.65625s-7.902343 17.65625-17.65625 17.65625h-79.445312c-9.75 0-17.65625-7.90625-17.65625-17.65625s7.90625-17.65625 17.65625-17.65625zm0 0" fill="#bdc3c7"/><path d="m17.65625 406.070312h79.445312c9.753907 0 17.65625 7.902344 17.65625 17.652344 0 9.753906-7.902343 17.65625-17.65625 17.65625h-79.445312c-9.75 0-17.65625-7.902344-17.65625-17.65625 0-9.75 7.90625-17.652344 17.65625-17.652344zm0 0" fill="#bdc3c7"/><g fill="#35495e"><path d="m79.449219 44.136719h-8.828125c-4.875 0-8.828125-3.949219-8.828125-8.828125 0-4.875 3.953125-8.824219 8.828125-8.824219h8.828125c4.875 0 8.828125 3.949219 8.828125 8.824219 0 4.878906-3.953125 8.828125-8.828125 8.828125zm0 0"/><path d="m247.171875 44.136719h-132.414063c-4.875 0-8.828124-3.949219-8.828124-8.828125 0-4.875 3.953124-8.824219 8.828124-8.824219h132.414063c4.875 0 8.828125 3.949219 8.828125 8.824219 0 4.878906-3.953125 8.828125-8.828125 8.828125zm0 0"/><path d="m361.929688 485.515625h-8.828126c-4.875 0-8.824218-3.949219-8.824218-8.824219 0-4.878906 3.949218-8.828125 8.824218-8.828125h8.828126c4.875 0 8.828124 3.949219 8.828124 8.828125 0 4.875-3.953124 8.824219-8.828124 8.824219zm0 0"/><path d="m317.792969 485.515625h-132.414063c-4.875 0-8.828125-3.949219-8.828125-8.824219 0-4.878906 3.953125-8.828125 8.828125-8.828125h132.414063c4.875 0 8.828125 3.949219 8.828125 8.828125 0 4.875-3.953125 8.824219-8.828125 8.824219zm0 0"/></g><path d="m308.964844 370.757812h-105.929688c-4.875 0-8.828125-3.953124-8.828125-8.828124s3.953125-8.828126 8.828125-8.828126h105.929688c4.875 0 8.828125 3.953126 8.828125 8.828126s-3.953125 8.828124-8.828125 8.828124zm0 0" fill="#556080"/><path d="m167.722656 370.757812h-17.652344c-4.875 0-8.828124-3.953124-8.828124-8.828124s3.953124-8.828126 8.828124-8.828126h17.652344c4.875 0 8.828125 3.953126 8.828125 8.828126s-3.953125 8.828124-8.828125 8.828124zm0 0" fill="#556080"/><path d="m335.449219 123.054688v27.015624h-52.964844v-27.015624c.148437-14.476563 12.003906-26.09375 26.480469-25.953126 6.992187-.023437 13.714844 2.703126 18.714844 7.59375 4.9375 4.839844 7.734374 11.449219 7.769531 18.359376zm0 0" fill="#fb7b76"/><path d="m335.449219 150.070312v167.898438l-20.570313 40.34375c-1.125 2.234375-3.410156 3.644531-5.914062 3.644531-2.5 0-4.789063-1.410156-5.914063-3.644531l-20.566406-40.34375v-167.898438zm0 0" fill="#f0c419"/><path d="m282.484375 150.070312h52.257813v35.308594h-52.257813zm0 0" fill="#ecf0f1"/></svg>