<svg height="512pt" viewBox="-53 0 512 512" width="512pt" xmlns="http://www.w3.org/2000/svg"><path d="m35.308594 0h335.449218c19.503907 0 35.3125 15.808594 35.3125 35.308594v441.382812c0 19.5-15.808593 35.308594-35.3125 35.308594h-335.449218c-19.5 0-35.308594-15.808594-35.308594-35.308594v-441.382812c0-19.5 15.808594-35.308594 35.308594-35.308594zm0 0" fill="#7f5b53"/><path d="m158.898438 44.136719v105.933593h-123.589844v-97.105468c0-4.875 3.953125-8.828125 8.828125-8.828125zm0 0" fill="#4482c3"/><path d="m370.757812 52.964844v97.105468h-211.859374v-105.933593h203.03125c4.875 0 8.828124 3.953125 8.828124 8.828125zm0 0" fill="#ecf0f1"/><path d="m35.308594 150.070312h123.589844v105.929688h-123.589844zm0 0" fill="#285680"/><path d="m158.898438 150.070312h211.859374v105.929688h-211.859374zm0 0" fill="#bdc3c7"/><path d="m158.898438 256h211.859374v105.929688h-211.859374zm0 0" fill="#ecf0f1"/><path d="m35.308594 256h123.589844v105.929688h-123.589844zm0 0" fill="#4482c3"/><path d="m158.898438 361.929688v105.933593h-114.761719c-4.875 0-8.828125-3.953125-8.828125-8.828125v-97.105468zm0 0" fill="#285680"/><path d="m370.757812 361.929688v97.105468c0 4.875-3.953124 8.828125-8.828124 8.828125h-203.03125v-105.933593zm0 0" fill="#bdc3c7"/><g fill="#4fba6f"><path d="m88.277344 123.585938c-2.34375 0-4.585938-.929688-6.242188-2.585938l-17.65625-17.65625c-3.34375-3.464844-3.296875-8.96875.109375-12.375 3.402344-3.402344 8.910157-3.453125 12.375-.105469l11.414063 11.414063 29.066406-29.070313c3.464844-3.34375 8.972656-3.296875 12.375.109375 3.40625 3.402344 3.453125 8.910156.109375 12.371094l-35.3125 35.3125c-1.652344 1.65625-3.898437 2.585938-6.238281 2.585938zm0 0"/><path d="m88.277344 229.515625c-2.34375 0-4.585938-.929687-6.242188-2.585937l-17.65625-17.652344c-3.34375-3.464844-3.296875-8.972656.109375-12.375 3.402344-3.40625 8.910157-3.453125 12.375-.109375l11.414063 11.414062 29.066406-29.070312c3.464844-3.34375 8.972656-3.296875 12.375.109375 3.40625 3.40625 3.453125 8.910156.109375 12.375l-35.3125 35.308594c-1.652344 1.65625-3.898437 2.585937-6.238281 2.585937zm0 0"/><path d="m88.277344 335.449219c-2.34375 0-4.585938-.933594-6.242188-2.585938l-17.65625-17.65625c-3.34375-3.464843-3.296875-8.96875.109375-12.375 3.402344-3.40625 8.910157-3.453125 12.375-.109375l11.414063 11.414063 29.066406-29.066407c3.464844-3.347656 8.972656-3.296874 12.375.105469 3.40625 3.40625 3.453125 8.910157.109375 12.375l-35.3125 35.3125c-1.652344 1.652344-3.898437 2.585938-6.238281 2.585938zm0 0"/><path d="m88.277344 441.378906c-2.34375 0-4.585938-.929687-6.242188-2.585937l-17.65625-17.65625c-3.34375-3.460938-3.296875-8.96875.109375-12.375 3.402344-3.402344 8.910157-3.453125 12.375-.105469l11.414063 11.414062 29.066406-29.070312c3.464844-3.34375 8.972656-3.296875 12.375.109375 3.40625 3.402344 3.453125 8.910156.109375 12.375l-35.3125 35.308594c-1.652344 1.65625-3.898437 2.585937-6.238281 2.585937zm0 0"/></g><path d="m335.449219 88.277344v17.652344c0 4.875-3.953125 8.828124-8.828125 8.828124h-79.449219v-35.308593h79.449219c4.875 0 8.828125 3.953125 8.828125 8.828125zm0 0" fill="#894b9d"/><path d="m247.171875 79.449219v35.308593h-44.136719c-4.875 0-8.828125-3.953124-8.828125-8.828124v-17.652344c0-4.875 3.953125-8.828125 8.828125-8.828125zm0 0" fill="#955ba5"/><path d="m335.449219 194.207031v17.65625c0 4.875-3.953125 8.828125-8.828125 8.828125h-35.3125v-35.3125h35.3125c4.875 0 8.828125 3.953125 8.828125 8.828125zm0 0" fill="#894b9d"/><path d="m291.308594 185.378906v35.3125h-88.273438c-4.875 0-8.828125-3.953125-8.828125-8.828125v-17.65625c0-4.875 3.953125-8.828125 8.828125-8.828125zm0 0" fill="#955ba5"/><path d="m335.449219 300.136719v17.65625c0 4.875-3.953125 8.828125-8.828125 8.828125h-79.449219v-35.3125h79.449219c4.875 0 8.828125 3.953125 8.828125 8.828125zm0 0" fill="#894b9d"/><path d="m247.171875 291.308594v35.3125h-44.136719c-4.875 0-8.828125-3.953125-8.828125-8.828125v-17.65625c0-4.875 3.953125-8.828125 8.828125-8.828125zm0 0" fill="#955ba5"/><path d="m335.449219 406.070312v17.652344c0 4.875-3.953125 8.828125-8.828125 8.828125h-26.484375v-35.308593h26.484375c4.875 0 8.828125 3.953124 8.828125 8.828124zm0 0" fill="#894b9d"/><path d="m300.136719 397.242188v35.308593h-97.101563c-4.875 0-8.828125-3.953125-8.828125-8.828125v-17.652344c0-4.875 3.953125-8.828124 8.828125-8.828124zm0 0" fill="#955ba5"/></svg>