<?xml version="1.0" standalone="no"?>
<!DOCTYPE svg PUBLIC "-//W3C//DTD SVG 20010904//EN"
 "http://www.w3.org/TR/2001/REC-SVG-20010904/DTD/svg10.dtd">
<svg version="1.0" xmlns="http://www.w3.org/2000/svg"
 width="800.000000pt" height="800.000000pt" viewBox="0 0 800.000000 800.000000"
 preserveAspectRatio="xMidYMid meet">
<metadata>
Created by potrace 1.15, written by Peter Selinger 2001-2017
</metadata>
<g transform="translate(0.000000,800.000000) scale(0.100000,-0.100000)"
fill="#000000" stroke="none">
<path d="M3681 7706 c2 -3 22 -7 44 -10 113 -14 307 -65 325 -85 3 -3 30 -25
60 -48 30 -23 68 -55 84 -72 17 -17 36 -31 45 -31 8 0 11 -3 8 -7 -10 -9 25
-32 49 -33 23 0 48 22 37 33 -3 4 -3 7 0 7 13 0 74 -67 104 -115 17 -27 48
-88 69 -135 21 -47 45 -96 55 -110 9 -14 29 -49 43 -78 24 -47 138 -234 156
-255 25 -30 -45 236 -71 269 -5 6 -6 13 -3 17 3 3 -2 17 -11 31 -10 14 -13 26
-9 26 20 0 105 -164 149 -287 13 -37 24 -61 25 -53 1 54 -105 288 -183 405
-54 81 -247 271 -327 324 -152 99 -356 178 -515 200 -79 11 -142 14 -134 7z"/>
<path d="M4788 6514 c-4 -6 -12 -56 -19 -110 -6 -55 -19 -146 -30 -203 -18
-97 -18 -141 0 -141 15 0 40 71 51 146 12 83 10 327 -2 308z"/>
<path d="M2385 6290 c22 -318 252 -684 552 -879 77 -51 142 -85 149 -79 3 3
-41 32 -98 64 -56 32 -118 72 -137 88 -83 76 -168 171 -195 219 -16 29 -47 72
-70 97 -75 82 -156 288 -191 485 l-15 80 5 -75z"/>
<path d="M2475 6222 c4 -73 48 -236 87 -324 12 -26 34 -59 50 -75 l28 -27 -6
50 c-4 27 -22 106 -39 176 -26 100 -41 138 -69 176 -19 27 -40 60 -45 73 -8
18 -9 6 -6 -49z"/>
<path d="M3300 5286 c0 -27 92 -56 230 -71 65 -7 219 10 276 30 l39 14 -35 1
c-19 1 -66 3 -105 5 -38 2 -117 7 -175 10 -58 3 -123 10 -145 15 -57 14 -85
12 -85 -4z"/>
<path d="M4580 4651 c117 -26 187 -59 240 -115 29 -29 56 -48 73 -50 22 -3 25
-1 16 10 -6 8 -8 14 -3 14 25 -1 62 -52 120 -167 75 -146 145 -263 157 -263 5
0 6 8 3 18 -3 9 -8 31 -12 47 -4 17 -18 54 -31 84 -35 81 -21 72 25 -16 23
-43 42 -72 42 -64 0 26 -85 173 -138 237 -124 151 -333 264 -512 279 l-65 5
85 -19z"/>
</g>
</svg>
