<svg height="512pt" viewBox="0 0 512 512.02882" width="512pt" xmlns="http://www.w3.org/2000/svg"><path d="m379.601562 97.132812v406.070313c0 4.875-3.953124 8.824219-8.828124 8.824219h-326.621094c-11.707032 0-22.933594-4.648438-31.210938-12.925782-8.277344-8.277343-12.925781-19.503906-12.925781-31.210937v-423.722656c0 11.703125 4.648437 22.929687 12.925781 31.210937 8.277344 8.277344 19.503906 12.925782 31.210938 12.925782h326.621094c4.875 0 8.828124 3.953124 8.828124 8.828124zm0 0" fill="#4482c3"/><path d="m282.496094 238.375h105.933594c4.875 0 8.824218 3.949219 8.824218 8.828125v88.273437c0 4.875-3.949218 8.828126-8.824218 8.828126h-105.933594c-29.25 0-52.964844-23.714844-52.964844-52.964844 0-29.253906 23.714844-52.964844 52.964844-52.964844zm0 0" fill="#285680"/><path d="m361.945312 8.855469v79.449219h-317.792968c-24.375 0-44.136719-19.761719-44.136719-44.136719 0-24.378907 19.761719-44.1406252 44.136719-44.1406252h308.964844c4.875 0 8.828124 3.9531252 8.828124 8.8281252zm0 0" fill="#285680"/><path d="m300.152344 291.339844c0 9.75-7.90625 17.65625-17.65625 17.65625s-17.652344-7.90625-17.652344-17.65625 7.902344-17.65625 17.652344-17.65625 17.65625 7.90625 17.65625 17.65625zm0 0" fill="#bdc3c7"/><path d="m361.945312 35.339844h-308.964843c-4.875 0-8.828125-3.953125-8.828125-8.828125s3.953125-8.828125 8.828125-8.828125h308.964843c4.875 0 8.828126 3.953125 8.828126 8.828125s-3.953126 8.828125-8.828126 8.828125zm0 0" fill="#2c3e50"/><path d="m361.945312 70.648438h-308.964843c-4.875 0-8.828125-3.949219-8.828125-8.828126 0-4.875 3.953125-8.824218 8.828125-8.824218h308.964843c4.875 0 8.828126 3.949218 8.828126 8.824218 0 4.878907-3.953126 8.828126-8.828126 8.828126zm0 0" fill="#2c3e50"/><path d="m501.6875 10.355469c-10.101562-10.109375-25.296875-13.136719-38.5-7.664063-13.203125 5.46875-21.804688 18.359375-21.792969 32.648438v397.242187l27.277344 74.238281c1.433594 3.148438 4.574219 5.167969 8.03125 5.167969 3.460937 0 6.601563-2.019531 8.035156-5.167969l27.277344-74.238281v-397.242187c-.019531-9.363282-3.730469-18.339844-10.328125-24.984375zm0 0" fill="#cc4b4c"/><path d="m512.015625 35.339844v132.414062h-70.621094v-132.414062c0-19.503906 15.808594-35.3125002 35.308594-35.3125002 19.503906 0 35.3125 15.8085942 35.3125 35.3125002zm0 0" fill="#35495e"/><path d="m441.394531 167.753906h70.621094v264.828125h-70.621094zm0 0" fill="#cc4b4c"/><path d="m512.015625 432.582031-27.277344 74.238281c-1.433593 3.148438-4.574219 5.167969-8.035156 5.167969-3.457031 0-6.597656-2.019531-8.03125-5.167969l-27.277344-74.238281zm0 0" fill="#2c3e50"/><path d="m476.703125 229.546875c-4.875 0-8.828125-3.953125-8.828125-8.828125v-158.898438c0-4.875 3.953125-8.824218 8.828125-8.824218s8.828125 3.949218 8.828125 8.824218v158.898438c0 4.875-3.953125 8.828125-8.828125 8.828125zm0 0" fill="#2c3e50"/><g fill="#285680"><path d="m35.324219 141.269531c-4.875 0-8.828125-3.953125-8.828125-8.828125v-8.828125c0-4.875 3.953125-8.824219 8.828125-8.824219s8.828125 3.949219 8.828125 8.824219v8.828125c0 4.875-3.953125 8.828125-8.828125 8.828125zm0 0"/><path d="m35.324219 273.683594c-4.875 0-8.828125-3.953125-8.828125-8.828125v-97.101563c0-4.875 3.953125-8.828125 8.828125-8.828125s8.828125 3.953125 8.828125 8.828125v97.101563c0 4.875-3.953125 8.828125-8.828125 8.828125zm0 0"/></g></svg>